<svg width="260" height="260" viewBox="0 0 260 260" fill="none" xmlns="http://www.w3.org/2000/svg">
<g clip-path="url(#clip0_1070_70)">
<path fill-rule="evenodd" clip-rule="evenodd" d="M96.7201 13C82.1601 26.52 72.8001 40.82 66.3001 59.8C62.1401 78.78 62.9201 94.64 70.7201 112.58C79.3001 126.62 89.4401 135.2 105.04 140.4C125.32 144.82 139.36 147.94 148.2 167.96C152.62 183.56 150.8 196.82 145.08 211.64C74.8801 344.5 -113.88 48.88 96.7201 13Z" fill="#0099CC"/>
<path fill-rule="evenodd" clip-rule="evenodd" d="M163.28 247C177.84 233.48 187.46 219.18 193.7 200.2C197.86 181.22 197.08 165.36 189.28 147.42C180.7 133.38 170.56 124.8 154.96 119.6C134.68 115.18 120.64 112.06 111.8 92.04C107.38 76.44 109.2 63.18 114.92 48.36C185.12 -84.5 373.88 211.12 163.28 247Z" fill="#0099CC"/>
</g>
<defs>
<clipPath id="clip0_1070_70">
<rect width="260" height="234" fill="white" transform="translate(0 13)"/>
</clipPath>
</defs>
</svg>
