<?xml version="1.0" standalone="no"?>
<!DOCTYPE svg PUBLIC "-//W3C//DTD SVG 20010904//EN"
 "http://www.w3.org/TR/2001/REC-SVG-20010904/DTD/svg10.dtd">
<svg version="1.0" xmlns="http://www.w3.org/2000/svg"
 width="260.000000pt" height="260.000000pt" viewBox="0 0 260.000000 260.000000"
 preserveAspectRatio="xMidYMid meet">
<metadata>
Created by potrace 1.14, written by Peter Selinger 2001-2017
</metadata>
<g transform="translate(0.000000,260.000000) scale(0.100000,-0.100000)"
fill="#000000" stroke="none">
<path d="M925 2463 c-330 -73 -543 -181 -698 -355 -83 -91 -172 -254 -191
-348 -33 -163 -35 -182 -31 -310 2 -74 9 -160 15 -190 6 -30 13 -64 16 -75 21
-103 95 -299 152 -405 34 -64 127 -206 174 -265 12 -16 64 -70 114 -120 237
-233 500 -309 705 -205 118 61 249 219 290 350 56 185 44 345 -34 460 -61 88
-141 135 -297 174 -163 41 -263 94 -348 186 -77 83 -122 182 -143 309 -10 65
-13 187 -5 226 2 11 7 40 11 64 19 112 145 349 229 426 34 33 79 85 70 84 -5
-1 -18 -3 -29 -6z"/>
<path d="M1530 2449 c-64 -12 -156 -61 -217 -114 -81 -71 -165 -205 -193 -306
-31 -113 -32 -258 -2 -342 19 -54 74 -134 112 -164 42 -34 136 -74 225 -96
130 -32 177 -51 250 -100 201 -133 287 -363 245 -659 -14 -96 -72 -232 -144
-338 -27 -40 -37 -54 -71 -94 -5 -7 -30 -34 -55 -60 l-45 -47 30 6 c329 73
506 158 669 320 126 125 204 265 243 434 25 111 24 335 -3 469 -88 444 -354
841 -687 1025 -106 59 -249 86 -357 66z"/>
</g>
</svg>
